<svg width="1200" height="675" viewBox="0 0 1200 675" fill="none" xmlns="http://www.w3.org/2000/svg">
<path d="M423.25 317.01C423.43 320.91 423.1 324.78 422.26 328.62C421.42 332.46 420.49 336.3 419.47 340.14C418.45 343.98 417.49 347.79 416.59 351.57C415.69 355.29 415.24 359.01 415.24 362.73C415.24 365.37 415.72 367.2 416.68 368.22C417.7 369.18 419.05 369.69 420.73 369.75C422.35 369.75 424.12 369.12 426.04 367.86C428.02 366.6 430.03 364.92 432.07 362.82C434.11 360.66 436.09 358.2 438.01 355.44C439.93 352.62 441.64 349.71 443.14 346.71C444.7 343.65 445.96 340.59 446.92 337.53C447.88 334.41 448.42 331.5 448.54 328.8C448.6 327.48 448.48 326.34 448.18 325.38C447.88 324.36 447.52 323.37 447.1 322.41C446.68 321.45 446.29 320.43 445.93 319.35C445.63 318.27 445.48 316.98 445.48 315.48C445.48 313.62 446.08 312.21 447.28 311.25C448.48 310.29 449.77 309.81 451.15 309.81C452.53 309.81 453.79 310.32 454.93 311.34C456.07 312.36 456.64 313.98 456.64 316.2C456.64 319.68 456.01 323.52 454.75 327.72C453.55 331.86 451.9 336.03 449.8 340.23C447.76 344.43 445.39 348.51 442.69 352.47C439.99 356.37 437.17 359.85 434.23 362.91C431.29 365.91 428.29 368.34 425.23 370.2C422.23 372 419.41 372.9 416.77 372.9C413.05 372.9 410.23 371.91 408.31 369.93C406.39 367.95 405.43 365.19 405.43 361.65C405.43 359.91 405.64 357.93 406.06 355.71C406.48 353.43 406.93 351.33 407.41 349.41H407.32C406 352.35 404.53 355.23 402.91 358.05C401.35 360.81 399.58 363.3 397.6 365.52C395.68 367.74 393.58 369.54 391.3 370.92C389.08 372.24 386.65 372.9 384.01 372.9C380.29 372.9 377.5 371.91 375.64 369.93C373.78 367.95 372.85 365.19 372.85 361.65C372.85 360.27 372.97 358.83 373.21 357.33C373.51 355.77 373.78 354.3 374.02 352.92L380.32 323.31C380.8 321.15 380.98 319.26 380.86 317.64C380.74 315.96 380.17 314.97 379.15 314.67C378.43 314.43 377.68 314.49 376.9 314.85C376.18 315.21 375.46 315.75 374.74 316.47C374.02 317.13 373.33 317.91 372.67 318.81C372.07 319.65 371.56 320.49 371.14 321.33L370.51 321.06C372.37 317.16 374.35 314.34 376.45 312.6C378.55 310.86 380.95 309.99 383.65 309.99C386.29 309.99 388.12 310.77 389.14 312.33C390.22 313.83 390.76 315.78 390.76 318.18C390.76 319.02 390.7 319.92 390.58 320.88C390.46 321.78 390.31 322.71 390.13 323.67L384.1 352.29C383.98 352.89 383.83 353.64 383.65 354.54C383.47 355.44 383.29 356.37 383.11 357.33C382.99 358.29 382.87 359.25 382.75 360.21C382.69 361.17 382.66 362.01 382.66 362.73C382.66 365.37 383.2 367.14 384.28 368.04C385.42 368.94 386.83 369.39 388.51 369.39C389.83 369.39 391.18 368.88 392.56 367.86C394 366.84 395.41 365.49 396.79 363.81C398.23 362.13 399.61 360.21 400.93 358.05C402.25 355.83 403.48 353.58 404.62 351.3C405.76 348.96 406.78 346.65 407.68 344.37C408.64 342.09 409.39 340.02 409.93 338.16C411.13 334.2 412 330.51 412.54 327.09C413.14 323.67 413.29 320.43 412.99 317.37C412.81 315.21 413.29 313.62 414.43 312.6C415.63 311.52 416.92 310.98 418.3 310.98C419.56 310.98 420.67 311.43 421.63 312.33C422.65 313.23 423.19 314.79 423.25 317.01ZM469.032 323.31C469.512 321.15 469.692 319.26 469.572 317.64C469.452 315.96 468.882 314.97 467.862 314.67C467.502 314.55 467.202 314.49 466.962 314.49C466.302 314.49 465.642 314.73 464.982 315.21C464.322 315.63 463.662 316.17 463.002 316.83C462.402 317.49 461.802 318.24 461.202 319.08C460.662 319.86 460.212 320.61 459.852 321.33L459.222 321.06C461.082 317.16 463.032 314.34 465.072 312.6C467.172 310.86 469.572 309.99 472.272 309.99C474.972 309.99 476.832 310.77 477.852 312.33C478.932 313.83 479.472 315.78 479.472 318.18C479.472 319.08 479.352 320.31 479.112 321.87C478.872 323.37 478.572 324.93 478.212 326.55C477.912 328.11 477.582 329.58 477.222 330.96C476.922 332.34 476.712 333.33 476.592 333.93C478.032 331.11 479.652 328.29 481.452 325.47C483.312 322.65 485.322 320.1 487.482 317.82C489.702 315.48 492.072 313.59 494.592 312.15C497.172 310.71 499.842 309.99 502.602 309.99C504.522 309.99 506.082 310.53 507.282 311.61C508.482 312.69 509.112 314.07 509.172 315.75C509.232 317.67 508.692 319.26 507.552 320.52C506.472 321.72 505.182 322.32 503.682 322.32C502.782 322.32 501.882 322.08 500.982 321.6C500.142 321.12 499.362 320.37 498.642 319.35C498.162 318.69 497.532 318.12 496.752 317.64C496.032 317.16 495.162 316.92 494.142 316.92C492.762 316.92 491.172 317.73 489.372 319.35C487.572 320.91 485.772 322.86 483.972 325.2C482.232 327.48 480.582 329.91 479.022 332.49C477.522 335.01 476.352 337.26 475.512 339.24L468.492 372H458.592L469.032 323.31ZM520.031 293.43C520.331 292.23 520.481 291.15 520.481 290.19C520.481 289.17 520.271 288.3 519.851 287.58C519.431 286.8 518.711 286.17 517.691 285.69C516.731 285.21 515.351 284.91 513.551 284.79L513.641 284.16C516.821 283.32 520.031 282.24 523.271 280.92C526.571 279.54 529.841 277.95 533.081 276.15L533.621 276.42L519.851 341.13C520.991 340.35 522.401 339.36 524.081 338.16C525.821 336.9 527.621 335.55 529.481 334.11C531.401 332.61 533.321 331.05 535.241 329.43C537.161 327.81 538.901 326.25 540.461 324.75C542.021 323.25 543.341 321.87 544.421 320.61C545.501 319.29 546.131 318.21 546.311 317.37C546.431 316.83 546.461 316.29 546.401 315.75C546.401 315.21 546.251 314.73 545.951 314.31C545.651 313.83 545.141 313.41 544.421 313.05C543.701 312.63 542.741 312.27 541.541 311.97L541.721 311.25H563.771L563.591 311.97C561.851 312.39 559.991 313.11 558.011 314.13C556.091 315.09 554.081 316.26 551.981 317.64C550.241 318.78 548.411 320.16 546.491 321.78C544.571 323.34 542.651 324.96 540.731 326.64C538.811 328.26 536.981 329.85 535.241 331.41C533.501 332.91 531.941 334.2 530.561 335.28V335.46C531.761 335.28 532.991 335.19 534.251 335.19C536.171 335.19 537.821 335.58 539.201 336.36C540.641 337.14 541.841 338.25 542.801 339.69C543.821 341.07 544.661 342.78 545.321 344.82C546.041 346.8 546.611 349.02 547.031 351.48C547.211 352.32 547.481 353.67 547.841 355.53C548.201 357.39 548.651 359.28 549.191 361.2C549.791 363.06 550.451 364.71 551.171 366.15C551.891 367.59 552.701 368.31 553.601 368.31C554.261 368.31 554.921 368.1 555.581 367.68C556.301 367.26 556.961 366.72 557.561 366.06C558.221 365.4 558.821 364.68 559.361 363.9C559.961 363.06 560.441 362.28 560.801 361.56L561.341 361.83C559.481 365.73 557.561 368.55 555.581 370.29C553.601 372.03 551.201 372.9 548.381 372.9C546.521 372.9 544.961 372.27 543.701 371.01C542.501 369.69 541.511 368.07 540.731 366.15C539.951 364.23 539.321 362.19 538.841 360.03C538.361 357.81 537.941 355.77 537.581 353.91C537.041 351.33 536.501 349.17 535.961 347.43C535.421 345.63 534.761 344.19 533.981 343.11C533.201 342.03 532.301 341.25 531.281 340.77C530.261 340.29 528.971 340.05 527.411 340.05C525.671 340.05 524.141 340.38 522.821 341.04C521.501 341.7 520.361 342.36 519.401 343.02L513.191 372H503.291L520.031 293.43ZM575.124 323.31C575.604 321.15 575.784 319.26 575.664 317.64C575.544 315.96 574.974 314.97 573.954 314.67C573.234 314.43 572.484 314.49 571.704 314.85C570.984 315.21 570.264 315.75 569.544 316.47C568.824 317.13 568.134 317.91 567.474 318.81C566.874 319.65 566.364 320.49 565.944 321.33L565.314 321.06C567.174 317.16 569.154 314.34 571.254 312.6C573.354 310.86 575.754 309.99 578.454 309.99C581.094 309.99 582.924 310.77 583.944 312.33C585.024 313.83 585.564 315.78 585.564 318.18C585.564 319.02 585.504 319.92 585.384 320.88C585.264 321.78 585.114 322.74 584.934 323.76L583.044 332.58C584.784 329.76 586.674 327 588.714 324.3C590.754 321.6 592.944 319.2 595.284 317.1C597.684 314.94 600.264 313.2 603.024 311.88C605.844 310.56 608.904 309.9 612.204 309.9C615.984 309.9 618.774 310.89 620.574 312.87C622.374 314.85 623.274 317.61 623.274 321.15C623.274 322.53 623.124 324 622.824 325.56C622.584 327.12 622.314 328.56 622.014 329.88L615.804 359.76C615.324 361.98 615.144 363.87 615.264 365.43C615.384 366.99 615.954 367.92 616.974 368.22C617.694 368.46 618.414 368.4 619.134 368.04C619.914 367.68 620.664 367.17 621.384 366.51C622.104 365.79 622.764 364.98 623.364 364.08C624.024 363.18 624.564 362.34 624.984 361.56L625.614 361.83C623.754 365.73 621.774 368.55 619.674 370.29C617.574 372.03 615.174 372.9 612.474 372.9C609.834 372.9 607.974 372.15 606.894 370.65C605.874 369.09 605.364 367.11 605.364 364.71C605.364 363.87 605.424 363 605.544 362.1C605.664 361.14 605.814 360.18 605.994 359.22L612.024 330.51C612.144 329.91 612.264 329.16 612.384 328.26C612.564 327.36 612.714 326.43 612.834 325.47C613.014 324.51 613.134 323.58 613.194 322.68C613.314 321.72 613.374 320.88 613.374 320.16C613.374 317.46 612.774 315.6 611.574 314.58C610.434 313.5 609.024 312.96 607.344 312.96C605.004 312.96 602.604 313.77 600.144 315.39C597.744 317.01 595.404 319.02 593.124 321.42C590.904 323.76 588.834 326.28 586.914 328.98C585.054 331.68 583.494 334.11 582.234 336.27L574.584 372H564.684L575.124 323.31ZM698.596 308.634V377.956C698.596 396.586 683.768 404.95 665.899 404.95C648.663 404.95 633.456 396.333 633.456 378.59H650.311C650.311 386.067 655.76 390.503 665.899 390.503C676.545 390.503 681.741 386.194 681.741 377.956V368.578C681.741 363.002 683.261 359.073 684.275 356.158L682.754 355.271C678.319 369.719 668.941 373.267 659.309 373.267C639.792 373.267 629.78 359.327 629.78 340.317C629.78 321.307 639.792 307.366 659.309 307.366C668.941 307.366 678.319 311.042 682.754 325.362L684.275 324.475C683.261 321.56 681.741 317.505 681.741 312.056V308.634H698.596ZM681.741 342.978V337.782C681.741 330.178 677.178 321.307 663.871 321.307C655 321.307 646.636 326.503 646.636 340.317C646.636 354.131 655 359.327 663.871 359.327C677.178 359.327 681.741 350.455 681.741 342.978ZM750.884 308.634V324.602C729.086 324.602 720.088 337.275 720.088 353.624V372H703.359V308.634H720.088V321.941C720.088 326.757 718.314 329.418 716.666 331.572L718.06 332.586C723.637 325.109 727.819 308.634 750.884 308.634ZM755.156 403.683V308.634H772.012V312.056C772.012 317.632 770.618 321.56 769.477 324.475L770.998 325.362C775.434 311.042 784.938 307.366 794.443 307.366C813.96 307.366 823.972 321.307 823.972 340.317C823.972 359.453 813.96 373.267 794.443 373.267C784.938 373.267 775.434 369.719 770.998 355.271L769.477 356.158C770.618 359.073 772.012 363.129 772.012 368.578V403.683H755.156ZM772.012 337.655V342.978C772.012 350.455 776.701 359.453 789.881 359.453C798.752 359.453 807.117 354.131 807.117 340.19C807.117 326.503 798.752 321.18 789.881 321.18C776.701 321.18 772.012 330.178 772.012 337.655ZM822.612 364.016C822.612 358.566 826.287 354.891 831.863 354.891C837.313 354.891 840.988 358.566 840.988 364.016C840.988 369.592 837.313 373.267 831.863 373.267C826.287 373.267 822.612 369.592 822.612 364.016Z" fill="black"/>
</svg>
